<svg width="10" height="10" viewBox="0 0 10 10" fill="none" xmlns="http://www.w3.org/2000/svg">
<g id="vuesax/bold/edit-2">
<g id="edit-2">
<path id="Vector" d="M8.75 9.16663H1.25C1.07917 9.16663 0.9375 9.02496 0.9375 8.85413C0.9375 8.68329 1.07917 8.54163 1.25 8.54163H8.75C8.92083 8.54163 9.0625 8.68329 9.0625 8.85413C9.0625 9.02496 8.92083 9.16663 8.75 9.16663Z" fill="#292D32"/>
<path id="Vector_2" d="M7.92523 1.45002C7.1169 0.641691 6.32523 0.620858 5.49607 1.45002L4.9919 1.95419C4.95023 1.99586 4.93357 2.06253 4.95023 2.12086C5.2669 3.22503 6.15023 4.10836 7.2544 4.42502C7.27107 4.42919 7.28773 4.43336 7.3044 4.43336C7.35023 4.43336 7.3919 4.41669 7.42523 4.38336L7.92523 3.87919C8.33773 3.47086 8.53773 3.07503 8.53773 2.67502C8.5419 2.26252 8.3419 1.86252 7.92523 1.45002Z" fill="#292D32"/>
<path id="Vector_3" d="M6.50397 4.80421C6.38314 4.74587 6.26647 4.68754 6.15397 4.62087C6.06231 4.56671 5.97481 4.50837 5.88731 4.44587C5.81647 4.40004 5.73314 4.33337 5.65397 4.26671C5.64564 4.26254 5.61647 4.23754 5.58314 4.20421C5.44564 4.08754 5.29147 3.93754 5.15397 3.77087C5.14147 3.76254 5.12064 3.73337 5.09147 3.69587C5.04981 3.64587 4.97897 3.56254 4.91647 3.46671C4.86647 3.40421 4.80814 3.31254 4.75397 3.22087C4.68731 3.10837 4.62897 2.99587 4.57064 2.87921C4.49416 2.71532 4.27905 2.66663 4.15117 2.79452L1.80814 5.13754C1.75397 5.19171 1.70397 5.29587 1.69147 5.36671L1.46647 6.96254C1.42481 7.24587 1.50397 7.51254 1.67897 7.69171C1.82897 7.83754 2.03731 7.91671 2.26231 7.91671C2.31231 7.91671 2.36231 7.91254 2.41231 7.90421L4.01231 7.67921C4.08731 7.66671 4.19147 7.61671 4.24147 7.56254L6.58836 5.21565C6.71369 5.09032 6.6666 4.87468 6.50397 4.80421Z" fill="#292D32"/>
</g>
</g>
</svg>
