<svg width="24" height="24" viewBox="0 0 24 24" fill="none" xmlns="http://www.w3.org/2000/svg">
<g id="filled">
<path id="vector" d="M22.6001 20.4001L18.2002 16C19.3002 14.4 20 12.5001 20 10.4001C20 5.20006 15.7 0.900024 10.5 0.900024C5.3 0.900024 1 5.20006 1 10.4001C1 15.6001 5.3 19.9001 10.5 19.9001C12.6 19.9001 14.5001 19.2 16.1001 18.1L20.5 22.5L22.6001 20.4001ZM4 10.5C4 6.90003 6.9 4.00003 10.5 4.00003C14.1 4.00003 17 6.90003 17 10.5C17 14.1 14.1 17 10.5 17C6.9 17 4 14.1 4 10.5Z" fill="#482B7B"/>
</g>
</svg>
