<svg width="16" height="16" viewBox="0 0 16 16" fill="none" xmlns="http://www.w3.org/2000/svg">
<g id="gps 1" clip-path="url(#clip0_46_2458)">
<path id="Vector" d="M0.275879 8.82764H1.71033C2.08728 11.6735 4.32654 13.9127 7.17236 14.2897V15.7241C7.17285 15.8763 7.29614 15.9995 7.44824 16H8.55176C8.70386 15.9995 8.82715 15.8763 8.82764 15.7241V14.2897C11.6735 13.9127 13.9127 11.6735 14.2897 8.82764H15.7241C15.8763 8.82715 15.9995 8.70386 16 8.55176V7.44824C15.9995 7.29614 15.8763 7.17285 15.7241 7.17236H14.2897C13.9127 4.32654 11.6735 2.08728 8.82764 1.71033V0.275879C8.82715 0.123657 8.70386 0.000488281 8.55176 0H7.44824C7.29614 0.000488281 7.17285 0.123657 7.17236 0.275879V1.71033C4.32654 2.08728 2.08728 4.32654 1.71033 7.17236H0.275879C0.123657 7.17285 0.000488281 7.29614 0 7.44824V8.55176C0.000488281 8.70386 0.123657 8.82715 0.275879 8.82764ZM8 3.3103C10.59 3.3103 12.6897 5.41003 12.6897 8C12.6897 10.59 10.59 12.6897 8 12.6897C5.41003 12.6897 3.3103 10.59 3.3103 8C3.31396 5.4115 5.4115 3.31396 8 3.3103Z" fill="#7D7D7D"/>
<path id="Vector_2" d="M10.2068 8C10.2068 9.21887 9.21875 10.2069 7.99988 10.2069C6.78101 10.2069 5.79297 9.21887 5.79297 8C5.79297 6.78113 6.78101 5.79309 7.99988 5.79309C9.21875 5.79309 10.2068 6.78113 10.2068 8Z" fill="#7D7D7D"/>
</g>
<defs>
<clipPath id="clip0_46_2458">
<rect width="16" height="16" fill="white"/>
</clipPath>
</defs>
</svg>
