<svg width="127" height="26" viewBox="0 0 127 26" fill="none" xmlns="http://www.w3.org/2000/svg">
<g id="Group 1">
<path id="Vector" d="M35.4866 7.08211C34.2343 7.21443 33.234 6.78635 32.21 6.57621C23.6169 4.80164 14.9923 4.38134 6.31249 5.96133C4.96563 6.21039 4.96563 6.20261 4.93413 7.61915C4.87111 10.7947 4.87112 10.7947 8.06105 10.7947C16.3785 10.7947 24.696 10.7947 33.0134 10.7947C33.4545 10.7947 33.9035 10.8336 34.3367 10.7869C35.2661 10.6935 35.5181 11.1138 35.5024 11.9778C35.4551 14.2816 35.4866 16.5854 35.4866 18.8893C35.4866 19.5742 35.4866 20.2591 35.4866 20.944C35.4866 24.0262 35.4866 24.0339 32.3676 24.5865C22.081 26.4234 11.8102 26.2522 1.56303 24.2597C0.019262 23.9561 0.011377 23.9483 0.00350062 22.3294C-0.00437577 21.341 0.00350062 20.3447 0.00350062 19.2395C1.5709 19.2395 2.92565 19.722 4.30401 19.9945C12.4797 21.6211 20.6711 21.8546 28.9098 20.5081C30.5796 20.2357 30.5796 20.2357 30.5875 18.5156C30.6111 15.6592 30.6111 15.6592 27.7284 15.6592C19.2219 15.6592 10.7154 15.6592 2.20889 15.6592C1.76781 15.6592 1.32674 15.6359 0.885664 15.6592C0.231924 15.6825 -0.0122522 15.3635 0.00350062 14.7486C0.0192534 14.0637 0.00350062 13.3787 0.00350062 12.6938C0.00350062 9.82958 -0.00437577 6.96537 0.00350062 4.10115C0.011377 2.48224 0.0113797 2.4511 1.7048 2.11642C9.912 0.481945 18.1743 0.0149657 26.5075 1.01122C29.1304 1.32254 31.7453 1.72727 34.3445 2.20205C35.1952 2.35771 35.5418 2.66124 35.5024 3.52518C35.4472 4.69266 35.4866 5.86793 35.4866 7.08211Z" fill="#FEFEFE"/>
<path id="Vector_2" d="M127 6.26298C119.523 5.32684 112.35 4.84715 105.155 4.94773C102.214 4.99415 99.2809 5.14115 96.3556 5.45836C94.9165 5.61309 94.8852 5.6595 94.9008 6.97474C94.9087 8.07336 94.4394 9.4505 95.1198 10.201C95.8238 10.9824 97.2473 10.4795 98.3423 10.4872C104.654 10.5182 110.974 10.4949 117.286 10.5027C119.014 10.5027 119.014 10.5182 119.038 12.2125C119.069 15.3381 119.069 15.3381 115.925 15.3381C109.55 15.3381 103.168 15.3381 96.7936 15.3381C94.8852 15.3381 94.8852 15.1138 94.893 17.28C94.9008 19.632 94.9087 21.984 94.8852 24.3282C94.8774 25.6744 94.8539 25.7131 93.5712 25.7131C92.4527 25.7053 91.037 26.1773 90.3018 25.4964C89.551 24.8079 90.0672 23.3843 90.0437 22.2934C90.0046 20.4985 90.0437 18.7036 90.0281 16.9087C90.0124 15.3691 89.9968 15.3459 88.4872 15.3381C86.2972 15.3227 84.1073 15.284 81.9251 15.3536C80.9083 15.3846 80.6032 15.0055 80.6815 14.0693C80.7753 12.963 80.2513 11.5936 80.9005 10.8199C81.5887 9.9998 83.0122 10.5491 84.1151 10.5104C85.6168 10.4563 87.1185 10.5104 88.6202 10.495C90.0046 10.4795 90.0203 10.464 90.0281 9.03271C90.0437 6.92833 90.0203 4.82395 90.0359 2.7273C90.0515 1.31922 90.0672 1.31147 91.4829 1.19542C102.722 0.290228 113.962 0.220597 125.201 1.19542C126.992 1.35016 126.992 1.35017 127 3.19151C127 4.15086 127 5.13342 127 6.26298Z" fill="#FEFEFE"/>
<path id="Vector_3" d="M40.9698 12.1108C40.9698 8.70186 40.9618 5.28516 40.9776 1.87625C40.9855 0.540638 41.0171 0.532882 42.3203 0.501821C43.0153 0.486291 43.7104 0.486291 44.4054 0.501821C45.8191 0.525117 45.8428 0.532869 45.8507 1.96943C45.8665 6.9935 45.8349 12.0253 45.8744 17.0494C45.8823 18.0744 45.4084 19.3324 46.1903 20.0856C46.8774 20.7456 48.1016 20.536 49.0968 20.6835C56.0786 21.7163 63.0525 21.592 70.0185 20.5127C71.5033 20.2797 71.5033 20.272 71.527 18.7578C71.5665 16.1098 71.5665 16.1098 74.2439 16.1098C74.3703 16.1098 74.4967 16.1098 74.6231 16.1098C76.5028 16.1176 76.4712 15.8846 76.4712 17.9191C76.4712 19.4722 76.4791 21.0252 76.4633 22.5705C76.4475 23.9604 76.4396 23.976 75.0653 24.2477C71.4718 24.9621 67.8466 25.4747 64.1977 25.6998C56.8605 26.1658 49.5706 25.6377 42.3598 24.2322C41.0092 23.9682 40.9934 23.9527 40.9855 22.5316C40.9619 19.0606 40.9698 15.5818 40.9698 12.1108Z" fill="#FEFEFE"/>
</g>
</svg>
