<svg width="26" height="26" viewBox="0 0 26 26" fill="none" xmlns="http://www.w3.org/2000/svg">
<g id="vuesax/bold/home">
<g id="home">
<path id="Vector" d="M22.5659 8.67748L15.47 3.00081C14.0834 1.89581 11.9167 1.88498 10.5409 2.98998L3.44504 8.67748C2.42671 9.48998 1.80921 11.115 2.02587 12.3933L3.39087 20.5616C3.70504 22.3925 5.40587 23.8333 7.25837 23.8333H18.7417C20.5725 23.8333 22.3059 22.36 22.62 20.5508L23.985 12.3825C24.18 11.115 23.5625 9.48998 22.5659 8.67748ZM13.8125 19.5C13.8125 19.9441 13.4442 20.3125 13 20.3125C12.5559 20.3125 12.1875 19.9441 12.1875 19.5V16.25C12.1875 15.8058 12.5559 15.4375 13 15.4375C13.4442 15.4375 13.8125 15.8058 13.8125 16.25V19.5Z" fill="#482B7B"/>
</g>
</g>
</svg>
