<svg width="26" height="26" viewBox="0 0 26 26" fill="none" xmlns="http://www.w3.org/2000/svg">
<g id="vuesax/bold/note-text">
<g id="note-text">
<g id="Group">
<path id="Vector" d="M9.479 3.79175V2.16675C9.479 1.72258 9.11067 1.35425 8.6665 1.35425C8.22234 1.35425 7.854 1.72258 7.854 2.16675V3.85675C8.12484 3.82425 8.374 3.79175 8.6665 3.79175H9.479Z" fill="#482B7B"/>
<path id="Vector_2" d="M18.146 3.85675V2.16675C18.146 1.72258 17.7777 1.35425 17.3335 1.35425C16.8893 1.35425 16.521 1.72258 16.521 2.16675V3.79175H17.3335C17.626 3.79175 17.8752 3.82425 18.146 3.85675Z" fill="#482B7B"/>
<path id="Vector_3" d="M18.1458 3.85675V5.41675C18.1458 5.86091 17.7775 6.22925 17.3333 6.22925C16.8892 6.22925 16.5208 5.86091 16.5208 5.41675V3.79175H9.47917V5.41675C9.47917 5.86091 9.11083 6.22925 8.66667 6.22925C8.2225 6.22925 7.85417 5.86091 7.85417 5.41675V3.85675C4.65833 4.14925 3.25 6.20758 3.25 9.20841V18.4167C3.25 21.6667 4.875 23.8334 8.66667 23.8334H17.3333C21.125 23.8334 22.75 21.6667 22.75 18.4167V9.20841C22.75 6.20758 21.3417 4.14925 18.1458 3.85675ZM13 18.1459H8.66667C8.2225 18.1459 7.85417 17.7776 7.85417 17.3334C7.85417 16.8892 8.2225 16.5209 8.66667 16.5209H13C13.4442 16.5209 13.8125 16.8892 13.8125 17.3334C13.8125 17.7776 13.4442 18.1459 13 18.1459ZM17.3333 12.7292H8.66667C8.2225 12.7292 7.85417 12.3609 7.85417 11.9167C7.85417 11.4726 8.2225 11.1042 8.66667 11.1042H17.3333C17.7775 11.1042 18.1458 11.4726 18.1458 11.9167C18.1458 12.3609 17.7775 12.7292 17.3333 12.7292Z" fill="#482B7B"/>
</g>
</g>
</g>
</svg>
