<svg width="20" height="20" viewBox="0 0 20 20" fill="none" xmlns="http://www.w3.org/2000/svg">
<g id="Object">
<mask id="mask0_43_1447" style="mask-type:luminance" maskUnits="userSpaceOnUse" x="0" y="0" width="20" height="20">
<path id="&#240;&#159;&#147;&#141;Icon" fill-rule="evenodd" clip-rule="evenodd" d="M0 10C0 4.48 4.48 0 10 0C15.52 0 20 4.48 20 10C20 15.52 15.52 20 10 20C4.48 20 0 15.52 0 10ZM2 10C2 14.42 5.58 18 10 18C14.42 18 18 14.42 18 10C18 5.58 14.42 2 10 2C5.58 2 2 5.58 2 10Z" fill="white"/>
</mask>
<g mask="url(#mask0_43_1447)">
<rect id="&#240;&#159;&#142;&#168; Color" x="-2" y="-2" width="24" height="24" fill="black" fill-opacity="0.6"/>
</g>
</g>
</svg>
