<svg width="76" height="180" viewBox="0 0 76 180" fill="none" xmlns="http://www.w3.org/2000/svg">
<path id="Vector" d="M-34.8115 13.2562C-34.2703 12.8363 -33.7205 12.8355 -33.2224 12.7305C-24.9131 10.9823 -16.528 10.4679 -8.05979 11.3402C-6.53457 11.4983 -6.51574 11.4972 -5.91072 10.0553C-4.65057 7.0337 -3.39042 4.01204 -2.19056 0.962519C-1.90611 0.239859 -1.58354 0.0767824 -0.828761 0.274573C4.92675 1.80697 10.6869 3.32245 16.4563 4.80412C17.2414 5.00382 17.3701 5.34555 17.2547 6.08232C16.742 9.30588 16.2885 12.5389 15.822 15.7745C15.6023 17.2751 15.6049 17.2879 16.9291 17.8644C22.0536 20.077 26.8624 22.8107 31.3613 26.0672C32.0201 26.5478 32.4385 26.5307 33.075 26.0331C35.7842 23.8985 38.5417 21.8128 41.2835 19.7169C42.0488 19.1324 42.0329 18.9651 42.8979 19.8199C47.0742 23.9159 51.2608 27.9964 55.437 32.0924C56.1827 32.8193 56.1766 32.8418 55.5185 33.6659C53.37 36.346 51.2389 39.0307 49.0562 41.6777C48.5464 42.2991 48.5251 42.6921 49.0188 43.3469C52.4295 47.8704 55.2835 52.7129 57.5895 57.8649C57.8945 58.5548 58.2489 58.7262 58.9976 58.6083C62.4371 58.0904 65.8843 57.6349 69.3288 57.1665C70.4586 57.0097 70.4743 57.0198 70.7754 58.1073C71.6659 61.3483 72.5492 64.5934 73.4324 67.8385C74.0613 70.1413 74.6682 72.4564 75.3174 74.7524C75.6243 75.8414 75.5853 76.0063 74.5423 76.4094C71.3755 77.645 68.2102 78.875 65.0449 80.1049C63.9539 80.5256 63.9293 80.5252 64.077 81.6993C64.5203 85.1976 64.5279 88.7085 64.4775 92.2283C64.4447 94.2188 64.2272 96.1849 64.008 98.1567C63.9241 98.9138 64.15 99.2388 64.8502 99.5008C68.0501 100.714 71.232 101.97 74.4211 103.223C75.5867 103.679 75.5967 103.688 75.2849 104.826C73.7838 110.327 72.277 115.827 70.7645 121.325C70.4434 122.497 70.4288 122.505 69.2263 122.341C65.8775 121.874 62.5245 121.4 59.173 120.921C58.0024 120.753 58.027 120.753 57.5031 121.854C56.3501 124.282 55.3131 126.782 53.9608 129.103C52.4938 131.617 50.7687 133.992 49.0625 136.365C48.6326 136.965 48.5615 137.315 49.0165 137.863C50.5941 139.768 52.1468 141.697 53.7083 143.616C54.3601 144.415 54.9796 145.241 55.6711 146.008C56.1212 146.507 56.062 146.836 55.5927 147.286C53.28 149.507 50.9956 151.759 48.7013 154.002C46.7778 155.884 44.8601 157.767 42.9324 159.641C42.1334 160.416 42.1145 160.417 41.2021 159.713C38.4942 157.651 35.7967 155.573 33.0961 153.506C32.222 152.842 32.2105 152.839 31.2849 153.491C26.7062 156.724 21.8392 159.477 16.6811 161.736C15.5789 162.221 15.5866 161.945 15.7961 163.389C16.2873 166.712 16.7728 170.034 17.2525 173.355C17.3957 174.365 17.3911 174.382 16.346 174.657C10.6367 176.157 4.91902 177.642 -0.783358 179.161C-1.48982 179.351 -1.89324 179.336 -2.19392 178.562C-3.39539 175.397 -5.0601 172.412 -6.11278 169.177C-6.38763 168.332 -6.71985 168.214 -7.6617 168.294C-11.5321 168.626 -15.4259 168.886 -19.2995 168.644C-20.8417 168.548 -22.4161 168.389 -23.9677 168.17C-25.3419 167.979 -25.8353 168.315 -26.3594 169.597C-27.5857 172.585 -28.8278 175.563 -30.0195 178.56C-30.2781 179.211 -30.5565 179.416 -31.2752 179.222C-37.0768 177.677 -42.8846 176.155 -48.6986 174.656C-49.4072 174.47 -49.5729 174.173 -49.4625 173.477C-48.9688 170.345 -48.5327 167.198 -48.075 164.063C-47.8204 162.3 -47.9148 162.148 -49.5404 161.432C-52.2946 160.215 -55.1258 159.099 -57.6548 157.488C-60.8722 155.437 -64.1323 153.429 -67.0602 150.953C-68.2939 149.911 -69.5864 148.926 -70.7935 147.855C-71.5389 147.194 -71.534 146.996 -70.7847 146.335C-67.8548 143.733 -64.8965 141.162 -61.9808 138.544C-61.3988 138.02 -61.0169 138.024 -60.4516 138.552C-58.371 140.493 -55.814 141.483 -53.0129 141.83C-49.3832 142.286 -46.248 141.121 -43.534 138.788C-42.5735 137.965 -42.5751 137.971 -41.4803 138.505C-35.3162 141.522 -28.8254 143.458 -21.961 144.121C-21.1796 144.199 -20.7884 144.507 -20.4199 145.123C-18.8099 147.834 -16.6851 150.064 -13.8774 151.627C-10.9251 153.27 -7.72083 153.814 -4.36744 153.678C-2.59948 153.604 -0.858984 153.359 0.853347 152.902C14.8233 149.201 26.4458 141.919 35.6593 131.011C37.7433 128.543 39.276 125.744 39.6922 122.489C40.1372 118.994 38.6435 116.332 35.8796 114.249C34.4926 113.203 34.4695 113.197 35.1573 111.656C37.5245 106.351 38.9857 100.816 39.5779 95.0705C39.6634 94.2172 39.9466 93.9049 40.7715 93.9821C40.8625 93.9879 40.9571 93.9583 41.0528 93.9471C45.9713 93.4181 48.9801 90.6856 49.7955 85.9289C50.1752 83.7093 50.2325 81.4716 49.8425 79.2435C47.3634 65.1441 40.9388 53.0486 30.5494 42.9822C28.251 40.7553 25.5642 39.0668 22.4985 38.04C18.3812 36.659 14.3313 36.9929 10.3666 38.6837C10.1494 38.7778 9.90377 38.8403 9.72185 38.9858C8.23262 40.184 6.79251 39.873 5.14654 39.1639C-0.674627 36.654 -6.83515 35.4503 -13.1646 35.066C-14.3614 34.994 -14.3572 35.0011 -14.7366 33.9293C-16.9065 27.7622 -22.7775 24.4421 -29.2941 25.6877C-30.5454 25.9275 -30.5527 25.9316 -30.9574 24.7264C-32.2334 20.9314 -33.5106 17.1181 -34.8115 13.2562Z" fill="#FEFEFE"/>
</svg>
